<!DOCTYPE svg PUBLIC "-//W3C//DTD SVG 20010904//EN" "http://www.w3.org/TR/2001/REC-SVG-20010904/DTD/svg10.dtd">
<svg version="1.0" xmlns="http://www.w3.org/2000/svg" width="100px" height="43px" viewBox="0 0 100 43" preserveAspectRatio="xMidYMid meet">
 <g id="layer101" fill="#e6ba2c" stroke="none">
  <path d="M5.9667 41.5667 c-0.1083 -0.1583 -0.1333 -0.5083 -0.1333 -2.1167 l0 -1.9333 -0.6667 -0.0333 c-0.7083 -0.025 -0.8333 -0.0917 -0.8333 -0.4583 0 -0.3833 0.2417 -0.4417 1.9583 -0.4417 1.725 0 1.9583 0.05 1.9583 0.4583 0 0.325 -0.2917 0.4583 -0.975 0.4583 l-0.6083 0 0 2.025 c0 1.4667 -0.025 2.05 -0.1 2.125 -0.1583 0.1583 -0.4583 0.1167 -0.6 -0.0833z"/>
  <path d="M9.6 41.65 c-0.075 -0.075 -0.1 -0.7333 -0.1 -2.4583 l0 -2.3583 0.2083 -0.1333 c0.1917 -0.125 0.225 -0.125 0.4167 0 l0.2083 0.1333 0 2.3 c0 1.425 -0.0333 2.3583 -0.0833 2.4583 -0.1 0.1833 -0.4917 0.2167 -0.65 0.0583z"/>
  <path d="M11.725 41.6 c-0.125 -0.1333 -0.1417 -0.425 -0.1417 -2.4167 0 -2.1583 0.0083 -2.275 0.1667 -2.4333 0.15 -0.15 0.275 -0.1667 1.4417 -0.1667 1.3917 0 1.6417 0.0667 1.6417 0.4583 0 0.3667 -0.2667 0.4583 -1.3917 0.4583 l-1.025 0 0 0.625 0 0.625 0.9417 0 c0.8167 0 0.9667 0.025 1.0833 0.15 0.1833 0.2 0.175 0.375 -0.0083 0.5417 -0.1167 0.1 -0.3583 0.1417 -1.0583 0.1583 l-0.9167 0.025 -0.025 0.65 -0.025 0.6417 1.0833 0 c1.1667 0 1.3417 0.0583 1.3417 0.45 0 0.35 -0.125 0.3833 -1.5833 0.3833 -1.2417 0 -1.4083 -0.0167 -1.525 -0.15z"/>
  <path d="M16.1333 41.6167 c-0.1167 -0.1083 -0.1333 -0.45 -0.1333 -2.4 0 -2.4917 0.0167 -2.5833 0.4583 -2.5333 0.2083 0.025 0.4 0.2333 1.3417 1.55 0.6 0.8417 1.1417 1.575 1.1917 1.625 0.0667 0.0667 0.0917 -0.3 0.0917 -1.4083 0 -1.4083 0.0083 -1.5167 0.1667 -1.6583 0.1333 -0.125 0.2167 -0.1417 0.4 -0.075 l0.225 0.075 0 2.4083 c0 2.1167 -0.0167 2.4167 -0.1333 2.4917 -0.275 0.175 -0.525 -0.0167 -1.1083 -0.8333 -0.325 -0.45 -0.85 -1.1833 -1.1667 -1.6333 l-0.5917 -0.825 -0.025 1.5667 c-0.0083 0.9833 -0.0583 1.6 -0.1083 1.675 -0.125 0.15 -0.45 0.1333 -0.6083 -0.025z"/>
  <path d="M21.375 41.5583 c-0.1167 -0.1833 -0.1333 -0.4833 -0.1083 -2.4583 0.0167 -1.725 0.05 -2.2833 0.1333 -2.3667 0.075 -0.075 0.3667 -0.1083 0.9333 -0.1 0.775 0 0.8667 0.0167 1.3917 0.2917 1.8833 0.9583 1.875 3.575 -0.0167 4.5583 -0.3583 0.1833 -0.55 0.225 -1.3083 0.25 -0.8667 0.0333 -0.8833 0.0333 -1.025 -0.175z m1.7167 -0.7333 c0.6333 -0.2167 1.0333 -0.6833 1.1667 -1.3667 0.1917 -0.9917 -0.6417 -1.9583 -1.675 -1.9583 l-0.4167 0 0 1.7083 0 1.7083 0.325 0 c0.175 0 0.4417 -0.0417 0.6 -0.0917z"/>
  <path d="M25.8833 41.625 c-0.075 -0.075 -0.1333 -0.2 -0.125 -0.275 0 -0.275 1.7 -4.625 1.8333 -4.7083 0.075 -0.0417 0.2333 -0.0583 0.35 -0.025 0.2333 0.0583 0.375 0.3833 1.475 3.375 0.4667 1.2833 0.4917 1.3833 0.375 1.5667 -0.125 0.1917 -0.4083 0.25 -0.6 0.125 -0.0583 -0.0333 -0.1917 -0.3083 -0.3083 -0.6 l-0.2 -0.5417 -0.8417 -0.025 -0.8417 -0.025 -0.1667 0.4 c-0.2833 0.6917 -0.3667 0.8167 -0.6 0.8417 -0.1167 0.0167 -0.275 -0.0333 -0.35 -0.1083z m2.45 -2.0167 c0 -0.0583 -0.125 -0.3917 -0.4167 -1.15 -0.1 -0.25 -0.1 -0.25 -0.3417 0.4083 -0.1333 0.3667 -0.2417 0.7 -0.2417 0.7333 0 0.0333 0.225 0.0667 0.5 0.0667 0.275 0 0.5 -0.025 0.5 -0.0583z"/>
  <path d="M34.6 41.65 c-0.05 -0.0583 -0.2 -0.3917 -0.3333 -0.7333 -0.1417 -0.3417 -0.5333 -1.2917 -0.8833 -2.1083 -0.625 -1.475 -0.725 -1.85 -0.5333 -2.0417 0.1583 -0.1583 0.4667 -0.1167 0.6 0.0917 0.15 0.2333 1.3833 3.1083 1.3833 3.225 0 0.2917 0.2083 -0.05 0.5833 -0.975 1.0167 -2.5 1.025 -2.5167 1.4417 -2.4083 0.3833 0.0917 0.3667 0.35 -0.1333 1.5167 -0.25 0.5917 -0.675 1.5833 -0.9333 2.2 -0.2583 0.6167 -0.5167 1.175 -0.5583 1.2333 -0.05 0.05 -0.1917 0.1 -0.3167 0.1 -0.125 0 -0.2667 -0.05 -0.3167 -0.1z"/>
  <path d="M38.2917 41.55 c-0.1167 -0.175 -0.1333 -0.5167 -0.1083 -2.4667 0.025 -2.1333 0.0333 -2.2667 0.1833 -2.3833 0.1667 -0.1167 0.4333 -0.0917 0.5917 0.0667 0.05 0.0417 0.0917 0.9667 0.1083 2.3333 0.025 2.4667 0 2.65 -0.4417 2.65 -0.125 0 -0.2583 -0.075 -0.3333 -0.2z"/>
  <path d="M40.4333 41.65 c-0.075 -0.075 -0.1 -0.7333 -0.1 -2.4583 l0 -2.3583 0.2083 -0.1333 c0.2833 -0.1833 1.7833 -0.1333 2.175 0.075 0.8417 0.4417 1.1167 1.5 0.5917 2.2917 -0.2 0.3083 -0.2 0.3083 -0.0417 0.525 0.0917 0.125 0.1917 0.4333 0.225 0.7167 0.0333 0.2917 0.1167 0.5667 0.2 0.6417 0.175 0.175 0.1833 0.4917 0.025 0.625 -0.0667 0.0583 -0.2417 0.0917 -0.3917 0.075 -0.375 -0.0333 -0.575 -0.3417 -0.6333 -0.9667 -0.0667 -0.6917 -0.2583 -0.875 -0.9833 -0.9167 l-0.5417 -0.0333 0 0.9083 c0 0.975 -0.05 1.1083 -0.4167 1.1083 -0.1167 0 -0.2583 -0.0417 -0.3167 -0.1z m2.075 -2.975 c0.3083 -0.3167 0.325 -0.6833 0.0333 -0.9667 -0.175 -0.1833 -0.275 -0.2083 -0.7917 -0.2083 l-0.5833 0 0 0.7083 0 0.7083 0.55 0 c0.4917 0 0.5667 -0.025 0.7917 -0.2417z"/>
  <path d="M46.1 41.65 c-0.075 -0.075 -0.1 -0.6583 -0.1 -2.125 l0 -2.025 -0.6083 0 c-0.7167 0 -1 -0.1417 -0.9583 -0.4833 0.0417 -0.375 0.2917 -0.4333 2.025 -0.4333 1.6917 0 1.9583 0.0583 1.9583 0.425 0 0.3417 -0.2833 0.4917 -0.9583 0.4917 l-0.625 0 0 2.025 c0 2.1667 -0.0083 2.225 -0.4167 2.225 -0.1167 0 -0.2583 -0.0417 -0.3167 -0.1z"/>
  <path d="M50.9583 41.65 c-0.525 -0.1917 -0.9417 -0.5583 -1.1833 -1.0417 -0.225 -0.4667 -0.2333 -0.5333 -0.2583 -1.9667 -0.0167 -0.8167 -0.0083 -1.575 0.0167 -1.6833 0.0667 -0.275 0.3167 -0.4 0.5833 -0.3 l0.2 0.0833 0.0333 1.6083 c0.025 1.425 0.0417 1.6417 0.1917 1.8917 0.3667 0.625 0.9833 0.8167 1.6583 0.525 0.6333 -0.2833 0.7167 -0.5583 0.7167 -2.4083 l0 -1.525 0.2083 -0.1333 c0.1917 -0.125 0.225 -0.125 0.4167 0 l0.2083 0.1333 0 1.65 c0 1.8 -0.0667 2.1 -0.5667 2.6333 -0.5083 0.5417 -1.525 0.7833 -2.225 0.5333z"/>
  <path d="M55.0167 41.65 c-0.0583 -0.0583 -0.1 -0.1917 -0.1 -0.3 0 -0.35 1.5917 -4.5833 1.7667 -4.7 0.1667 -0.1 0.45 -0.0833 0.55 0.0417 0.05 0.0583 0.4667 1.1167 0.9333 2.35 0.5583 1.4833 0.825 2.3083 0.7917 2.4333 -0.05 0.2167 -0.4167 0.3417 -0.6167 0.2167 -0.075 -0.0417 -0.2083 -0.2833 -0.3 -0.5333 -0.0917 -0.25 -0.2 -0.5 -0.2333 -0.5583 -0.075 -0.1083 -1.525 -0.1417 -1.6917 -0.0333 -0.05 0.0333 -0.1583 0.2583 -0.2333 0.5 -0.0833 0.2417 -0.2 0.4917 -0.275 0.5583 -0.1417 0.15 -0.45 0.1667 -0.5917 0.025z m2.2083 -2.65 c-0.1417 -0.3667 -0.2833 -0.6417 -0.3167 -0.6083 -0.0583 0.0583 -0.4917 1.1417 -0.4917 1.2333 0 0.025 0.2417 0.0417 0.5333 0.0417 l0.5333 0 -0.2583 -0.6667z"/>
  <path d="M60.0167 41.65 c-0.075 -0.075 -0.1 -0.7333 -0.1 -2.4583 l0 -2.3583 0.2083 -0.1333 c0.1917 -0.125 0.225 -0.125 0.4167 0 l0.2083 0.1333 0 2.0417 0 2.0333 1.1 0.025 c1.1 0.025 1.1 0.025 1.225 0.25 0.1167 0.2 0.1167 0.2333 -0.025 0.3917 -0.15 0.1667 -0.25 0.175 -1.55 0.175 -0.9667 0 -1.4167 -0.0333 -1.4833 -0.1z"/>
  <path d="M66.0167 41.65 c-0.1583 -0.1583 -0.1167 -0.4333 0.1417 -1.1333 0.1417 -0.35 0.5 -1.3167 0.8 -2.1417 0.3083 -0.825 0.6167 -1.5667 0.6917 -1.6417 0.1583 -0.1833 0.4583 -0.1917 0.6083 -0.0167 0.0583 0.075 0.2833 0.6083 0.5 1.1833 0.2083 0.5833 0.5833 1.575 0.825 2.2083 0.475 1.2583 0.4917 1.5167 0.1083 1.6083 -0.3167 0.0833 -0.4417 -0.0333 -0.6667 -0.6583 l-0.2083 -0.5583 -0.8167 0 c-0.9083 0 -0.9 -0.0083 -1.125 0.625 -0.0833 0.2333 -0.2083 0.4667 -0.2833 0.525 -0.1583 0.125 -0.4417 0.1333 -0.575 0z m2.2667 -2.5417 c-0.125 -0.3167 -0.2417 -0.6417 -0.275 -0.725 -0.05 -0.125 -0.125 -0.0083 -0.325 0.525 -0.15 0.375 -0.2667 0.7083 -0.2667 0.725 0 0.0167 0.2417 0.0333 0.5417 0.0333 l0.5333 0 -0.2083 -0.5583z"/>
  <path d="M71.05 41.6167 c-0.1167 -0.1083 -0.1333 -0.45 -0.1333 -2.4 0 -2.4917 0.0167 -2.5833 0.4583 -2.5333 0.25 0.025 0.1833 -0.05 2.0833 2.575 l0.5 0.6917 0.025 -1.5083 c0.0167 -1.3833 0.0333 -1.5167 0.1917 -1.65 0.125 -0.125 0.2083 -0.1417 0.3917 -0.075 l0.225 0.075 0 2.4083 c0 2.1167 -0.0167 2.4167 -0.1333 2.4917 -0.275 0.175 -0.525 -0.0167 -1.1083 -0.8333 -0.325 -0.45 -0.85 -1.1833 -1.1667 -1.6333 l-0.5917 -0.825 -0.025 1.5667 c-0.0083 0.9833 -0.0583 1.6 -0.1083 1.675 -0.125 0.15 -0.45 0.1333 -0.6083 -0.025z"/>
  <path d="M78.0667 41.55 c-0.6083 -0.25 -0.9 -0.4833 -1.2583 -1.0333 -0.3333 -0.5 -0.4333 -0.95 -0.375 -1.7167 0.05 -0.6333 0.275 -1.075 0.7833 -1.575 0.5583 -0.5583 1.1167 -0.75 2.0417 -0.7083 0.6083 0.025 0.775 0.075 1.1667 0.2917 0.425 0.2417 0.45 0.275 0.45 0.575 0 0.275 -0.0333 0.3333 -0.2167 0.4 -0.175 0.0583 -0.275 0.0417 -0.4583 -0.0917 -0.8667 -0.6 -2.0667 -0.3917 -2.6583 0.4583 -0.2167 0.3167 -0.25 0.4333 -0.25 0.925 0 0.4833 0.0333 0.625 0.25 0.9667 0.5083 0.8167 1.55 1.0583 2.4917 0.5833 0.3917 -0.2 0.5 -0.225 0.675 -0.1417 0.3167 0.1417 0.2833 0.5333 -0.0583 0.7917 -0.6667 0.5 -1.7583 0.6167 -2.5833 0.275z"/>
  <path d="M81.9583 41.55 c-0.125 -0.1833 -0.1083 -0.2667 0.325 -1.4333 0.7833 -2.1333 1.2417 -3.325 1.325 -3.425 0.0417 -0.0583 0.1833 -0.1083 0.3083 -0.1083 0.125 0 0.2667 0.05 0.3083 0.1083 0.0833 0.1 0.9 2.225 1.4833 3.8417 0.275 0.775 0.2833 0.8417 0.1667 1.025 -0.1 0.15 -0.2 0.1917 -0.3583 0.175 -0.2333 -0.025 -0.3667 -0.225 -0.6417 -0.925 l-0.1167 -0.3167 -0.8583 0.025 -0.8583 0.025 -0.1667 0.4667 c-0.0917 0.2583 -0.2167 0.5333 -0.2833 0.6083 -0.1667 0.2 -0.4833 0.1667 -0.6333 -0.0667z m2.4583 -1.9417 c0 -0.1167 -0.45 -1.275 -0.5 -1.275 -0.0417 0 -0.5 1.175 -0.5 1.275 0 0.0833 1 0.075 1 0z"/>
  <path d="M87.7417 41.625 c-0.475 -0.175 -0.9417 -0.425 -1.1 -0.6083 -0.2083 -0.2333 -0.15 -0.5333 0.1167 -0.6333 0.1667 -0.0583 0.2833 -0.025 0.55 0.15 0.8167 0.5417 1.7917 0.5583 2.2333 0.0417 0.1167 -0.1417 0.2083 -0.3083 0.2083 -0.375 0 -0.2333 -0.4 -0.525 -0.8833 -0.6583 -1.4583 -0.3917 -1.7667 -0.5333 -2.0333 -0.975 -0.1 -0.1667 -0.1667 -0.425 -0.1667 -0.6583 0 -1.1917 1.6667 -1.8083 3.025 -1.1167 0.5583 0.2833 0.7 0.4667 0.5667 0.7583 -0.1167 0.2667 -0.3833 0.2583 -0.9667 -0.05 -0.275 -0.1417 -0.6 -0.25 -0.7833 -0.25 -0.3917 0 -0.85 0.2333 -1.0083 0.5167 -0.1167 0.2167 -0.1083 0.2417 0.0833 0.4333 0.1417 0.1417 0.4583 0.275 0.9667 0.4167 0.925 0.2417 1.2667 0.4 1.6 0.725 0.9917 0.9667 0 2.425 -1.6333 2.4 -0.2583 0 -0.6083 -0.05 -0.775 -0.1167z"/>
  <path d="M91.7083 41.55 c-0.1167 -0.175 -0.1333 -0.5167 -0.1083 -2.4667 0.025 -2.125 0.0333 -2.2667 0.1833 -2.3833 0.225 -0.1583 0.35 -0.15 0.55 0.05 0.15 0.15 0.1667 0.275 0.1667 1.0833 l0 0.9167 0.9167 0 0.9167 0 0 -0.9583 c0 -0.925 0.0083 -0.9583 0.2083 -1.0917 0.1917 -0.125 0.225 -0.125 0.4167 0 l0.2083 0.1333 0 2.3583 c0 2.5167 -0.0083 2.5583 -0.4167 2.5583 -0.375 0 -0.4167 -0.125 -0.4167 -1.1833 l0 -0.9833 -0.9167 0 -0.9167 0 0 0.9417 c0 0.8167 -0.025 0.9667 -0.15 1.0833 -0.2167 0.2 -0.4917 0.175 -0.6417 -0.0583z"/>
  <path d="M67.2833 35.825 c-0.025 -0.05 0.0917 -0.3 0.2667 -0.5583 0.3417 -0.5 0.6 -0.6167 0.95 -0.4333 0.25 0.1333 0.2083 0.275 -0.25 0.7 -0.4083 0.3833 -0.825 0.5083 -0.9667 0.2917z"/>
  <path d="M4.2667 30.825 c-1.125 -0.1417 -2.1167 -0.6083 -2.85 -1.3333 -0.8333 -0.8167 -1.2917 -1.8333 -1.3833 -3.1 l-0.0583 -0.7167 0.4083 -0.4833 c0.225 -0.2667 0.6583 -0.7667 0.9667 -1.1083 0.3083 -0.3417 1.275 -1.45 2.15 -2.4583 0.875 -1.0083 1.7083 -1.9167 1.8583 -2.0167 0.325 -0.2333 0.9167 -0.2583 1.2333 -0.0417 0.125 0.075 0.6667 0.5417 1.2083 1.0333 1.775 1.6 2.5667 2.2333 3.1167 2.5083 0.4833 0.2417 0.6083 0.2667 1.2917 0.2667 1.1583 0 1.5 -0.2 3.4417 -2.0667 0.8583 -0.8167 1.675 -1.5667 1.8083 -1.65 0.35 -0.225 0.9333 -0.2083 1.2667 0.0333 0.1417 0.1 0.625 0.6 1.0667 1.1 1.55 1.75 2.5 2.8333 2.9167 3.2917 1.35 1.4833 1.7833 1.9833 1.8 2.0917 0.0417 0.2167 -0.1083 0.9333 -0.3167 1.525 -0.7 1.9667 -1.9917 2.875 -4.45 3.1333 -0.95 0.0917 -14.725 0.0917 -15.475 -0.0083z"/>
  <path d="M96.925 27.175 c-0.1 -0.0667 -0.1167 -0.8083 -0.1167 -4.6083 0 -3.2 0.025 -4.625 0.0917 -4.8667 0.25 -0.8583 1.025 -1.4333 2.0583 -1.5083 0.525 -0.05 0.5417 -0.0417 0.625 0.175 0.05 0.15 0.0833 2.075 0.0833 5.425 0 4.6167 -0.0167 5.2083 -0.1333 5.325 -0.1083 0.1083 -0.35 0.1333 -1.3083 0.1333 -0.65 0 -1.2333 -0.0333 -1.3 -0.075z"/>
  <path d="M96.6667 15.775 c-0.175 -0.65 -0.2667 -1.5083 -0.225 -2.2083 0.05 -0.8833 0.2833 -1.3667 0.8417 -1.6917 1.2667 -0.7417 2.7167 0.1 2.7167 1.575 0 0.9083 -0.5083 1.5083 -1.525 1.8 -0.8333 0.2417 -1.1833 0.4083 -1.4 0.6333 -0.25 0.2667 -0.3 0.25 -0.4083 -0.1083z"/>
</g>
 <g id="layer102" fill="#ffffff" stroke="none">
  <path d="M36.8 27.4583 c-1.475 -0.3083 -3.2167 -1.525 -4.0417 -2.8333 -0.4083 -0.6417 -0.3917 -0.6833 0.7667 -1.5333 0.5583 -0.4167 1.0583 -0.7583 1.1 -0.7583 0.05 0 0.2 0.1917 0.3333 0.425 0.3417 0.5917 1.25 1.4083 1.925 1.7417 0.7167 0.35 1.4167 0.375 2.0167 0.0667 0.75 -0.3833 0.9417 -0.9833 0.5667 -1.7833 -0.2333 -0.5083 -0.7167 -0.9917 -2.2583 -2.2833 -2.2083 -1.85 -3.075 -2.95 -3.3 -4.2 -0.225 -1.2583 0.3917 -2.7417 1.4583 -3.5083 1.55 -1.1 3.6417 -1.15 5.3917 -0.125 0.725 0.4333 1.1167 0.875 1.2917 1.4667 0.2333 0.8 0.075 1.4833 -0.4667 2.025 -0.3083 0.3083 -0.525 0.3333 -0.6417 0.075 -0.175 -0.3917 -0.875 -1.0583 -1.3417 -1.2917 -0.4083 -0.2 -0.575 -0.2333 -1.1833 -0.2333 -0.525 0 -0.7833 0.0417 -0.9917 0.1583 -0.4417 0.2333 -0.675 0.5333 -0.675 0.8583 0 0.5667 0.2667 0.8583 2.25 2.5 0.6667 0.55 1.55 1.3417 1.975 1.7583 0.6417 0.6417 0.825 0.8833 1.1583 1.55 0.35 0.7167 0.3917 0.85 0.4333 1.5333 0.0333 0.6583 0.0083 0.85 -0.1833 1.4667 -0.5917 1.9083 -2 2.925 -4.175 3.0083 -0.5333 0.025 -1.0417 -0.0083 -1.4083 -0.0833z"/>
  <path d="M59.8583 27.4167 c-2.0167 -0.3667 -3.65 -2.025 -4.2 -4.2917 -0.1667 -0.675 -0.125 -2.3083 0.075 -3.0583 0.5583 -2.075 2.175 -3.725 4.0333 -4.1167 0.75 -0.1667 1.7083 -0.1 2.375 0.15 0.55 0.2 1.1583 0.7667 1.45 1.325 0.2083 0.425 0.3083 1.325 0.1667 1.675 l-0.0833 0.2333 -0.4 -0.25 c-1.6917 -1.0833 -3.7667 -0.5917 -4.5917 1.075 -0.2083 0.4333 -0.225 0.5333 -0.225 1.5083 0.0083 0.8917 0.0333 1.1167 0.2 1.5333 0.35 0.8833 1.0917 1.4417 2.2083 1.6417 1.3667 0.25 2.5083 -0.5083 2.9583 -1.9667 0.275 -0.8833 0.3417 -1.7083 0.3417 -4.2 0 -1.75 0.025 -2.4167 0.1 -2.4917 0.1417 -0.1417 2.4917 -0.1417 2.6333 0 0.1417 0.1417 0.1417 10.825 0 10.9667 -0.1083 0.1083 -2.3417 0.15 -2.6 0.05 -0.1 -0.0417 -0.1333 -0.175 -0.1333 -0.5417 0 -0.2667 -0.0167 -0.4917 -0.0417 -0.4917 -0.0167 0 -0.3333 0.2083 -0.7 0.45 -0.3917 0.2667 -0.9 0.525 -1.225 0.6333 -0.65 0.2 -1.725 0.275 -2.3417 0.1667z"/>
  <path d="M44.4333 27.15 c-0.075 -0.075 -0.1 -1.6667 -0.1 -6.65 l0 -6.55 0.2083 -0.425 c0.325 -0.6417 0.9417 -1.0583 1.775 -1.2 0.825 -0.1333 0.7667 -0.3333 0.7667 2.5583 l0 2.55 0.3583 -0.3083 c0.8 -0.6833 2.2 -1.1333 3.1333 -1 1.475 0.2 2.6417 1.075 3.1083 2.3333 0.1833 0.4917 0.1917 0.6 0.2167 4.525 0.0167 2.9833 0 4.0667 -0.075 4.15 -0.1333 0.1583 -2.425 0.1667 -2.5583 0.0083 -0.0583 -0.0667 -0.1 -1.3083 -0.1167 -3.475 -0.0333 -2.85 -0.0583 -3.4417 -0.175 -3.7917 -0.1583 -0.475 -0.5333 -0.8917 -0.9917 -1.075 -0.8083 -0.3417 -1.7667 0.075 -1.9833 0.85 -0.05 0.1917 -0.1333 0.35 -0.1917 0.35 -0.0583 0 -0.2417 -0.1167 -0.4167 -0.2583 l-0.3083 -0.25 0 3.775 c0 2.8333 -0.025 3.8083 -0.1 3.8833 -0.0667 0.0667 -0.475 0.1 -1.275 0.1 -0.8 0 -1.2083 -0.0333 -1.275 -0.1z"/>
  <path d="M69.125 27.1583 c-0.075 -0.1083 -0.075 -10.7833 0 -10.9 0.0333 -0.0583 0.5167 -0.0917 1.3833 -0.0917 l1.325 0 0 0.5 c0 0.275 0.0167 0.5 0.0417 0.5 0.025 0 0.2417 -0.1583 0.4833 -0.3417 1.5833 -1.2667 3.575 -1.3 5.1583 -0.1 0.2083 0.1667 0.5083 0.4583 0.6583 0.6583 l0.2667 0.3583 0.3 -0.4333 c0.3583 -0.5083 1.05 -1.0167 1.6333 -1.1917 1.7583 -0.525 3.1917 -0.25 4.325 0.8417 0.525 0.5 0.8333 1.0583 0.9667 1.75 0.0583 0.3417 0.0833 1.7583 0.0667 4.5 l-0.025 4 -1.3083 0.025 c-1.1833 0.0167 -1.3167 0.0083 -1.3833 -0.125 -0.0417 -0.0833 -0.1 -1.6833 -0.125 -3.5667 -0.0333 -2.0917 -0.0833 -3.5667 -0.1417 -3.8083 -0.1083 -0.45 -0.3583 -0.85 -0.6833 -1.0917 -0.2833 -0.2083 -1.0833 -0.2833 -1.5083 -0.15 -0.375 0.125 -0.7667 0.5667 -0.9 1.0083 -0.1167 0.3917 -0.2167 0.4083 -0.5667 0.1167 l-0.2583 -0.2167 0 3.825 c0 2.8667 -0.025 3.85 -0.1 3.925 -0.0667 0.0667 -0.475 0.1 -1.2917 0.1 -1.0833 0 -1.1917 -0.0167 -1.275 -0.1583 -0.05 -0.1083 -0.0833 -1.225 -0.0833 -3.0667 0 -4.0417 -0.0917 -4.6083 -0.8583 -5.2167 -0.25 -0.2083 -0.4083 -0.2667 -0.8 -0.2917 -0.2667 -0.0167 -0.625 0.0083 -0.7833 0.0583 -0.3833 0.125 -0.7833 0.5833 -0.8583 0.9667 -0.0667 0.3667 -0.2 0.3667 -0.5583 0 -0.1583 -0.1583 -0.3083 -0.2917 -0.3417 -0.2917 -0.025 0 -0.05 1.775 -0.05 3.95 0 3.525 -0.0167 3.9583 -0.1333 4 -0.2333 0.0917 -2.5167 0.0583 -2.575 -0.0417z"/>
  <path d="M89.575 23.05 c-0.45 -0.1167 -0.775 -0.3583 -1.0667 -0.7833 -0.1917 -0.2667 -0.2167 -0.3917 -0.2167 -0.975 l0 -0.6667 2.1333 -0.025 2.1333 -0.0167 0.45 0.2333 c0.55 0.2833 0.8083 0.725 0.875 1.525 0.0833 0.825 0.0833 0.825 -2.1333 0.8167 -1.1417 0 -1.9333 -0.0417 -2.175 -0.1083z"/>
  <path d="M23.2917 21.6083 c-0.6417 -0.725 -1.5667 -1.7667 -2.0583 -2.325 -1.0583 -1.2 -1.2917 -1.4083 -1.9 -1.6833 -0.8583 -0.3917 -2.1583 -0.275 -2.9667 0.2667 -0.1417 0.1 -0.9417 0.8333 -1.775 1.6333 -0.8333 0.8 -1.6583 1.5417 -1.825 1.6417 -0.6333 0.3917 -0.8583 0.275 -2.6833 -1.3167 -0.3 -0.2667 -0.9167 -0.8083 -1.375 -1.2083 -1.725 -1.5 -3.0917 -1.75 -4.4833 -0.8083 -0.5333 0.3583 -0.9833 0.85 -2.85 3.1083 l-1.3333 1.6083 -0.025 -1.1583 c-0.0083 -0.6333 -0.0083 -2.9167 0 -5.075 0.025 -3.8833 0.025 -3.9167 0.2167 -4.3333 0.2083 -0.4417 0.725 -1.0333 1.15 -1.3 0.3417 -0.2083 1.35 -0.575 1.5917 -0.575 0.225 0 0.225 -0.0167 0.0583 0.8 -0.075 0.3667 -0.1417 1.0167 -0.15 1.45 l-0.0083 0.7917 0.2083 -0.0083 c0.3167 -0.0167 1.1083 -0.1917 1.1833 -0.2667 0.0333 -0.0333 0.1583 -0.6083 0.2833 -1.2667 0.9417 -5.15 3.3417 -9.125 5.85 -9.6583 0.8667 -0.1833 2.1333 -0.0583 2.7083 0.2583 0.1667 0.0917 0.1417 0.1083 -0.275 0.1667 -1.3333 0.1833 -2.0917 0.475 -2.8667 1.1083 -0.9 0.7333 -1.4917 1.5083 -2.0917 2.75 -0.45 0.9333 -1.075 2.5333 -1.0167 2.5917 0.0167 0.0167 0.775 -0.0583 1.6917 -0.175 2.5083 -0.325 4.3917 -0.3583 6.2 -0.125 1.7167 0.2167 3 0.45 3.3167 0.6 0.2167 0.1083 0.225 0.1333 0.3333 1.275 0.0583 0.6417 0.15 1.425 0.2083 1.7417 l0.1 0.575 0.6667 0.1917 c0.3667 0.1083 0.675 0.2 0.6917 0.2 0.0667 0.0083 -0.0083 -2.1417 -0.1083 -3.0167 -0.2083 -1.7667 -0.4917 -2.925 -1.0833 -4.3583 -0.7333 -1.7917 -1.9333 -3.1833 -3.525 -4.1167 -0.9083 -0.525 -2.0667 -0.8833 -3.6833 -1.1417 l-0.375 -0.0583 0.25 -0.1083 c0.5083 -0.2083 1.5583 -0.3 2.3583 -0.2083 1.7 0.2083 2.8083 0.7417 4.1333 2.0083 0.7083 0.675 1.1333 1.2167 1.7917 2.3083 0.7833 1.3083 1.5417 3.1583 2.0083 4.9417 0.1083 0.3917 0.225 0.75 0.2667 0.8 0.0417 0.0583 0.3083 0.1833 0.5917 0.2917 0.375 0.1417 0.6417 0.3167 0.9833 0.65 0.7917 0.7917 0.7583 0.5083 0.8333 6.5083 0.0417 2.8583 0.0417 5.2333 0.0083 5.2667 -0.0333 0.0333 -0.5833 -0.525 -1.225 -1.2417z"/>
</g>

</svg>