<svg class="img-fluid" id="outputsvg" xmlns="http://www.w3.org/2000/svg" width="507" height="656" viewBox="0 0 5070 6560" style="transform: matrix(1, 0, 0, 1, 0, 0); transform-origin: 50% 50%; cursor: move; max-height: none;"><g id="l7FoO6esMtbAsMrRk25jwan" fill="rgb(43,87,181)" style="transform: none;"><g><path id="pt0EGD82Q" d="M250 6435 c-47 -7 -103 -20 -125 -27 l-40 -13 -3 -124 c-1 -68 1 -128 5 -132 5 -5 80 -1 168 7 181 18 246 15 275 -11 23 -21 27 -82 8 -108 -7 -9 -87 -62 -178 -117 -182 -112 -257 -177 -292 -254 -19 -43 -23 -68 -23 -156 0 -95 3 -110 29 -163 35 -72 92 -117 191 -149 62 -20 88 -23 235 -22 166 1 339 22 367 46 9 7 13 44 13 134 l0 124 -32 0 c-18 0 -114 -5 -214 -11 -209 -14 -237 -8 -242 48 -4 39 16 55 188 149 262 142 323 210 337 372 15 182 -82 327 -259 389 -91 32 -276 40 -408 18z"></path><path id="pOIjpxwdV" d="M2276 6434 c-64 -20 -137 -92 -159 -159 -11 -30 -17 -80 -17 -134 0 -199 100 -275 378 -288 l122 -6 0 -38 c0 -101 -27 -111 -255 -100 -102 5 -165 5 -172 -2 -9 -6 -13 -41 -13 -107 0 -66 4 -101 13 -108 19 -16 156 -41 264 -48 183 -12 329 29 403 113 71 82 73 94 78 491 2 263 0 357 -9 368 -9 11 -40 14 -134 14 -68 0 -130 -3 -139 -6 -9 -3 -16 -17 -16 -30 l0 -25 -42 25 c-94 54 -207 69 -302 40z m307 -233 c28 -11 28 -11 25 -93 -3 -95 -3 -95 -96 -83 -75 9 -102 37 -102 104 0 42 4 53 28 71 22 18 36 21 72 17 25 -3 58 -10 73 -16z"></path><path id="pEbHr3E23" d="M1082 6418 c-17 -17 -17 -1259 0 -1276 13 -13 262 -18 292 -6 14 5 16 31 16 186 0 99 3 178 8 176 86 -45 169 -62 269 -56 133 9 221 74 260 193 24 71 32 765 10 784 -10 8 -57 11 -158 9 l-144 -3 -5 -330 c-5 -348 -8 -367 -52 -381 -38 -12 -100 -7 -145 11 l-43 17 0 338 c0 299 -2 339 -16 344 -30 12 -279 7 -292 -6z"></path><path id="p19BAGa7d9" d="M3112 6418 c-17 -17 -17 -939 0 -956 8 -8 53 -12 138 -12 134 0 150 5 150 48 0 13 3 22 8 20 4 -2 30 -15 57 -29 127 -67 290 -61 371 13 22 19 22 19 75 -11 69 -38 160 -55 251 -48 89 8 151 38 195 95 63 83 66 108 71 505 2 267 0 362 -9 373 -15 19 -278 21 -297 2 -9 -9 -12 -94 -12 -319 0 -301 -5 -353 -33 -371 -14 -9 -93 -10 -124 -2 l-23 6 0 337 c0 249 -3 340 -12 349 -8 8 -56 12 -148 12 -92 0 -140 -4 -148 -12 -9 -9 -12 -94 -12 -319 0 -301 -5 -353 -33 -371 -18 -11 -90 -10 -126 3 l-31 11 0 332 c0 245 -3 335 -12 344 -8 8 -56 12 -148 12 -92 0 -140 -4 -148 -12z"></path><path id="p16xCQCTtd" d="M4234 3297 c-75 -85 -250 -284 -259 -293 -5 -6 -53 -60 -105 -119 -120 -137 -262 -285 -273 -285 -5 0 -21 -8 -35 -19 -43 -30 -130 -51 -211 -51 -150 0 -232 42 -392 198 -333 324 -375 360 -426 366 -66 7 -93 -11 -383 -264 -79 -69 -160 -139 -179 -156 -60 -51 -156 -113 -201 -129 -162 -57 -312 -26 -459 93 -24 20 -123 132 -219 247 -96 116 -195 234 -220 263 -25 29 -54 64 -64 78 -11 13 -22 24 -26 24 -4 0 -5 -321 -2 -712 6 -817 -1 -760 101 -872 60 -65 148 -117 230 -135 23 -5 46 -14 52 -20 13 -13 44 -14 51 -3 3 5 -1 33 -9 63 -16 63 -35 225 -35 302 0 74 14 85 79 63 28 -9 60 -16 73 -16 13 0 34 -6 47 -13 22 -11 27 -26 47 -142 80 -462 234 -854 444 -1133 158 -210 322 -302 538 -302 64 0 207 32 226 50 5 5 -13 11 -40 15 -201 25 -377 112 -500 248 -87 96 -219 320 -269 457 -48 133 -76 222 -71 228 4 3 33 0 65 -6 32 -7 107 -17 167 -22 60 -6 138 -16 174 -22 108 -20 620 -17 765 5 171 25 341 57 402 74 l52 15 6 57 c4 31 9 68 11 82 2 14 8 90 14 169 6 78 16 154 23 169 9 20 28 31 81 48 37 13 84 26 104 29 l35 7 -6 -192 c-17 -484 -129 -876 -330 -1151 -180 -247 -505 -424 -850 -465 -32 -4 -57 -9 -54 -11 17 -17 139 -33 253 -34 108 0 149 4 229 25 206 52 401 183 565 380 92 111 234 364 300 535 18 47 36 92 40 100 4 8 26 80 50 160 77 262 64 239 153 276 129 52 186 106 228 212 22 55 23 72 30 572 9 684 11 971 6 976 -2 2 -12 -6 -23 -19z"></path></g></g><g id="lIldvEmMjDAfngpFPsasVd" fill="rgb(242,203,26)" style="transform: none;"><g><path id="pUwMSjZJ4" d="M1358 4450 c-144 -18 -288 -91 -396 -202 -75 -77 -107 -129 -148 -243 -15 -39 -44 -213 -44 -259 0 -17 93 -130 326 -397 449 -515 454 -519 529 -519 53 0 81 18 222 146 207 187 407 352 466 383 148 78 330 57 473 -54 30 -23 148 -132 263 -242 179 -172 215 -202 255 -213 62 -17 113 -2 164 48 20 20 153 168 294 327 141 160 304 344 363 410 146 163 139 151 126 231 -46 260 -182 446 -385 525 -168 65 -111 62 -1331 65 -610 1 -1140 -2 -1177 -6z"></path></g></g><g id="l3twGsUnUg8y8V0IPQQGjeI" fill="rgb(255,228,3)" style="transform: none;"><g><path id="p1EBzy91dX" d="M4642 6418 c-19 -19 -17 -1211 2 -1227 9 -8 63 -11 167 -9 l154 3 0 620 0 620 -155 3 c-113 2 -159 -1 -168 -10z"></path><path id="p19mWTBoxA" d="M3620 4440 c0 -5 9 -10 20 -10 11 0 20 5 20 10 0 6 -9 10 -20 10 -11 0 -20 -4 -20 -10z"></path><path id="pN3VO0LWm" d="M3680 4430 c0 -5 9 -10 20 -10 11 0 20 5 20 10 0 6 -9 10 -20 10 -11 0 -20 -4 -20 -10z"></path><path id="pfpuSChSz" d="M3740 4420 c0 -5 7 -10 15 -10 8 0 15 5 15 10 0 6 -7 10 -15 10 -8 0 -15 -4 -15 -10z"></path><path id="pXE47vcVU" d="M3922 4358 c5 -15 28 -23 28 -10 0 5 -7 13 -16 16 -10 4 -14 1 -12 -6z"></path></g></g></svg>