<!DOCTYPE svg PUBLIC "-//W3C//DTD SVG 20010904//EN" "http://www.w3.org/TR/2001/REC-SVG-20010904/DTD/svg10.dtd">
<svg version="1.0" xmlns="http://www.w3.org/2000/svg" width="100px" height="88px" viewBox="0 0 100 88" preserveAspectRatio="xMidYMid meet">
 <g id="layer101" fill="#e9bc27" stroke="none">
  <path d="M93.9251 86.3844 c-0.0651 -0.0651 -0.114 -3.0619 -0.114 -6.645 0 -5.9772 0.0326 -6.5798 0.3094 -7.1824 0.5375 -1.1889 1.873 -1.9707 3.1596 -1.8404 l0.5212 0.0489 0 7.8176 0 7.8176 -1.8893 0.0489 c-1.0261 0.0163 -1.9218 -0.0163 -1.987 -0.0651z"/>
  <path d="M93.7622 70.4072 c-0.2443 -0.3909 -0.4723 -2.329 -0.4072 -3.4365 0.0489 -0.9935 0.1629 -1.4007 0.4397 -1.8078 0.4723 -0.6515 1.1401 -0.9935 1.9707 -0.9935 1.5309 0 2.4593 0.8795 2.5733 2.4267 0.0977 1.5309 -0.5212 2.1987 -2.6059 2.8827 -0.6352 0.2117 -1.3192 0.5375 -1.5309 0.7329 -0.1954 0.1792 -0.3909 0.2769 -0.4397 0.1954z"/>
  <path d="M31.5147 64.1857 c-3.9739 -1.1401 -6.5798 -4.4137 -6.8404 -8.5668 l-0.0977 -1.6287 5.2932 -6.0261 c2.9316 -3.3062 5.5212 -6.1564 5.7655 -6.3029 0.5049 -0.342 1.2378 -0.3583 1.8404 -0.0814 0.228 0.114 2.0684 1.6612 4.1042 3.4528 3.9739 3.4853 5.0163 4.202 6.7427 4.5114 1.2541 0.228 2.785 -0.0977 4.0879 -0.8958 0.4886 -0.2769 2.3453 -1.9218 4.1205 -3.6482 3.5831 -3.4528 3.9577 -3.6971 5.1792 -3.3225 0.7329 0.2117 0.8795 0.3583 7.7362 8.1433 5.114 5.798 4.8208 5.2769 4.1531 7.671 -0.9121 3.3225 -2.9316 5.4235 -6.2541 6.5472 l-1.1401 0.3746 -16.8567 0.0326 c-15.6026 0.0326 -16.9218 0.0163 -17.8339 -0.2606z"/>
</g>
 <g id="layer102" fill="#ffffff" stroke="none">
  <path d="M7.2476 86.7427 c-1.2378 -0.3909 -2.6547 -1.2215 -3.6319 -2.1336 -0.9935 -0.9121 -1.987 -2.2801 -1.987 -2.7036 0 -0.1954 2.6384 -2.2476 3.0619 -2.3941 0.0814 -0.0163 0.2117 0.1303 0.3094 0.342 0.2769 0.6026 1.8241 2.215 2.557 2.6384 1.3681 0.798 3.127 0.6678 3.9251 -0.2769 0.8469 -1.0098 0.342 -2.3616 -1.5147 -4.0065 -5.7818 -5.114 -6.3029 -5.798 -6.3029 -8.1759 0 -1.2052 0.0651 -1.4984 0.4886 -2.3453 0.9446 -1.873 2.6221 -2.8664 5.0651 -2.9967 1.2215 -0.0651 1.7101 -0.0163 2.6384 0.2769 1.3192 0.3909 2.557 1.1726 3.0782 1.9381 0.7329 1.1075 0.6352 2.5896 -0.228 3.6156 -0.5212 0.6352 -0.7329 0.6189 -1.2052 -0.114 -0.9283 -1.4169 -2.7687 -2.2313 -4.202 -1.8404 -0.8795 0.228 -1.645 0.9609 -1.645 1.5472 0 0.5049 1.2378 1.8893 2.5896 2.899 1.6775 1.2378 4.6743 4.2997 5.1303 5.228 0.7003 1.4169 0.8306 2.4593 0.5212 3.8762 -0.5212 2.3616 -1.6938 3.6971 -3.8762 4.43 -1.4169 0.4723 -3.5993 0.57 -4.772 0.1954z"/>
  <path d="M39.8208 86.4984 c-1.7264 -0.6189 -2.8013 -1.4821 -3.8599 -3.1107 -1.0586 -1.6612 -1.5472 -4.772 -1.0423 -6.8893 0.5537 -2.329 2.1173 -4.4625 4.0391 -5.5049 0.9609 -0.5049 1.1401 -0.5537 2.8339 -0.6026 1.6124 -0.0651 1.873 -0.0326 2.5244 0.2932 0.9121 0.456 1.4007 0.9121 1.7752 1.6287 0.7492 1.4658 0.4886 3.5179 -0.3257 2.5407 -0.0977 -0.1303 -0.6678 -0.4072 -1.2541 -0.6026 -1.1889 -0.3909 -2.5896 -0.3583 -3.4365 0.0814 -0.6352 0.3257 -1.759 1.5961 -2.0684 2.3127 -0.3257 0.798 -0.3257 2.8827 0.0326 3.8925 0.3909 1.1564 1.3681 2.0684 2.5896 2.4104 0.5375 0.1466 1.1564 0.2769 1.3844 0.2769 1.5635 0 2.9805 -1.1889 3.5668 -3.013 0.342 -1.0261 0.3909 -1.5798 0.4723 -5.3746 l0.0977 -4.2345 1.8078 -0.0489 c1.3844 -0.0326 1.8567 0.0163 2.0033 0.1792 0.1303 0.1792 0.1792 2.2801 0.1466 7.9479 l-0.0489 7.7199 -1.9544 0 -1.9544 0 -0.0489 -0.7492 -0.0489 -0.7655 -1.0586 0.7166 c-0.5863 0.3909 -1.4332 0.8143 -1.8893 0.9609 -1.1564 0.342 -3.2573 0.3094 -4.2834 -0.0651z"/>
  <path d="M18.5993 76.8078 l0.0489 -9.6743 0.5049 -0.6189 c0.6515 -0.8143 1.7101 -1.3681 2.6221 -1.3681 l0.7003 0 0 3.6808 0 3.6808 0.5049 -0.4397 c0.2932 -0.228 0.8958 -0.6189 1.3518 -0.8632 0.7492 -0.3909 0.9935 -0.4397 2.5407 -0.4397 1.5798 0 1.7915 0.0326 2.671 0.4886 1.1401 0.57 1.9381 1.4658 2.3779 2.6384 0.3094 0.8143 0.3257 1.2704 0.3257 6.7264 l0 5.8632 -1.9381 0 -1.9381 0 -0.0651 -5.1629 c-0.0489 -4.8697 -0.0651 -5.2117 -0.3909 -5.7492 -0.4723 -0.798 -1.2704 -1.3029 -2.101 -1.3029 -0.8795 0 -1.7264 0.5537 -1.9381 1.2704 -0.1792 0.6515 -0.6026 0.684 -1.0586 0.0977 l-0.342 -0.4235 -0.0326 5.5863 -0.0489 5.6026 -1.9218 0.0489 -1.9055 0.0489 0.0326 -9.6906z"/>
  <path d="M54.1042 78.6319 l0.0489 -7.8664 1.9544 0 1.9544 0 0.0489 0.7003 0.0489 0.7003 0.6026 -0.5212 c1.0586 -0.9446 2.215 -1.3518 3.7785 -1.3518 1.2541 -0.0163 1.4984 0.0326 2.4756 0.5212 0.7329 0.3583 1.3355 0.8143 1.8241 1.3681 l0.7166 0.8306 0.2443 -0.4723 c0.342 -0.6352 1.0261 -1.2541 1.9055 -1.7101 0.6026 -0.3094 1.0586 -0.3909 2.5407 -0.4397 1.5635 -0.0651 1.9218 -0.0163 2.557 0.2606 1.0586 0.4723 2.2801 1.6775 2.7362 2.6873 0.3909 0.8469 0.3909 0.8795 0.3909 6.9544 l0 6.1075 -1.9544 0 -1.9544 0 -0.0977 -5.2117 c-0.0814 -4.8046 -0.114 -5.2769 -0.4235 -5.9772 -0.4397 -0.9772 -1.0098 -1.3518 -2.101 -1.3518 -1.1889 0 -1.9055 0.5863 -2.4104 1.9544 -0.0326 0.0977 -0.2443 -0.0163 -0.4723 -0.228 l-0.4397 -0.3909 -0.0326 5.6026 -0.0489 5.6026 -1.873 0 -1.873 0 -0.0814 -4.886 c-0.114 -5.9772 -0.2117 -6.4658 -1.4658 -7.2313 -0.8795 -0.5375 -1.9544 -0.4723 -2.671 0.1466 -0.3094 0.2769 -0.6189 0.7166 -0.6678 0.9772 -0.1303 0.6026 -0.2443 0.6026 -0.7492 0.0651 l-0.3909 -0.4235 -0.0814 5.684 -0.0814 5.6678 -2.0033 0.0489 -1.987 0.0489 0.0326 -7.8664z"/>
  <path d="M97.785 81.4332 c0 -1.1238 0.0163 -1.5798 0.0489 -1.0098 0.0326 0.5537 0.0326 1.4658 0 2.0358 -0.0326 0.5537 -0.0489 0.0977 -0.0489 -1.0261z"/>
  <path d="M82.9642 80.3094 c-0.9446 -0.4235 -1.4007 -1.2215 -1.3355 -2.329 l0.0489 -0.8632 3.1107 -0.0489 c2.9967 -0.0326 3.127 -0.0326 3.6645 0.3257 0.7655 0.5212 1.1401 1.3192 1.0912 2.329 l-0.0489 0.8143 -2.9316 0.0326 c-2.5733 0.0489 -3.013 0 -3.5993 -0.2606z"/>
  <path d="M26.7752 61.2052 l-0.4723 -0.5375 0.5375 0.4723 c0.2769 0.2769 0.5212 0.5049 0.5212 0.5375 0 0.1303 -0.1303 0.0163 -0.5863 -0.4723z"/>
  <path d="M69.9511 43.8925 c-2.1498 -2.4756 -4.1857 -4.772 -4.5277 -5.0814 -1.5635 -1.4169 -3.9739 -2.0033 -5.9121 -1.4332 -1.5309 0.4397 -2.3941 1.0912 -5.7329 4.3648 -3.2573 3.1759 -3.9088 3.6319 -4.8371 3.4691 -0.6515 -0.1303 -1.0261 -0.4072 -3.9251 -2.9642 -4.5765 -4.0228 -5.3257 -4.5603 -6.8893 -5.0163 -2.7687 -0.8143 -5.1303 0.2606 -7.7687 3.5179 -0.5212 0.6515 -2.0195 2.4593 -3.3225 4.0228 l-2.3616 2.8502 -0.0489 -9.8534 c-0.0326 -7.215 0.0163 -10.0326 0.1466 -10.57 0.5375 -2.0033 1.759 -3.2248 4.1368 -4.1368 1.5961 -0.6026 2.1661 -0.6515 1.9707 -0.1466 -0.2769 0.7166 -0.6026 3.2736 -0.5537 4.4788 0.0489 1.3355 0.0489 1.3518 0.456 1.3355 0.9283 -0.0489 2.4267 -0.4397 2.5081 -0.6515 0.0489 -0.114 0.3094 -1.4495 0.57 -2.9479 1.2052 -6.6612 4.0228 -12.8827 7.4593 -16.5147 1.3029 -1.3518 2.4919 -2.101 4.0391 -2.5081 1.6287 -0.4235 3.8111 -0.2606 5.342 0.3909 l0.6678 0.2932 -1.0423 0.0977 c-1.4821 0.1466 -2.8339 0.5212 -4.0554 1.1401 -1.2378 0.6189 -3.1759 2.3779 -4.1694 3.7622 -1.2378 1.759 -3.9577 7.8339 -3.6319 8.1596 0.0489 0.0651 0.6352 0.0326 1.3029 -0.0814 4.4625 -0.7003 10.5537 -0.9935 13.4853 -0.6678 3.8925 0.4397 7.6384 1.1401 8.0293 1.4821 0.0814 0.0651 0.2769 1.4984 0.456 3.1922 0.4235 4.2345 0.3257 3.9251 1.4169 4.2345 0.5049 0.1303 1.1401 0.3257 1.4007 0.4072 0.2606 0.0814 0.5049 0.1466 0.5212 0.1466 0.1629 0 0.0326 -3.8111 -0.1954 -6.0749 -0.342 -3.5179 -1.1238 -6.5798 -2.4756 -9.8046 -0.3746 -0.8958 -1.9544 -3.241 -2.8176 -4.2182 -0.3909 -0.456 -1.4495 -1.3518 -2.329 -2.0195 -2.5244 -1.873 -4.4137 -2.7199 -7.1824 -3.2085 -0.8958 -0.1629 -1.8404 -0.342 -2.1173 -0.4072 l-0.4886 -0.114 0.6515 -0.1954 c0.3583 -0.114 1.5309 -0.2443 2.6059 -0.2932 1.5961 -0.0651 2.2313 -0.0163 3.4853 0.2606 3.6645 0.8143 6.6938 3.0293 9.3811 6.8567 2.0033 2.8664 4.0554 7.5896 5.0489 11.645 0.1629 0.6352 0.3583 1.2704 0.4397 1.4332 0.0814 0.1629 0.7166 0.5537 1.4007 0.8632 1.759 0.798 2.2638 1.2378 2.8664 2.4919 l0.5049 1.0749 0.0489 8.6319 c0.0163 4.7557 0.0163 9.5765 0 10.7166 l-0.0489 2.0847 -3.9088 -4.4951z"/>
  <path d="M56.6775 44.9023 c0 -0.0163 0.57 -0.5863 1.2704 -1.2541 l1.2541 -1.2215 -1.2215 1.2704 c-1.1238 1.1564 -1.3029 1.3355 -1.3029 1.2052z"/>
  <path d="M60.798 41.5798 c0.1466 -0.0326 0.4072 -0.0326 0.57 0 0.1466 0.0489 0.0163 0.0814 -0.2932 0.0814 -0.3094 0 -0.4397 -0.0326 -0.2769 -0.0814z"/>
</g>

</svg>