<!DOCTYPE svg PUBLIC "-//W3C//DTD SVG 20010904//EN" "http://www.w3.org/TR/2001/REC-SVG-20010904/DTD/svg10.dtd">
<svg version="1.0" xmlns="http://www.w3.org/2000/svg" width="614px" height="543px" viewBox="0 0 6140 5430" preserveAspectRatio="xMidYMid meet">
<g id="layer101" fill="#e9bc27" stroke="none">
<path d="M5767 5304 c-4 -4 -7 -188 -7 -408 0 -367 2 -404 19 -441 33 -73 115 -121 194 -113 l32 3 0 480 0 480 -116 3 c-63 1 -118 -1 -122 -4z"/>
<path d="M5757 4323 c-15 -24 -29 -143 -25 -211 3 -61 10 -86 27 -111 29 -40 70 -61 121 -61 94 0 151 54 158 149 6 94 -32 135 -160 177 -39 13 -81 33 -94 45 -12 11 -24 17 -27 12z"/>
<path d="M1935 3941 c-244 -70 -404 -271 -420 -526 l-6 -100 325 -370 c180 -203 339 -378 354 -387 31 -21 76 -22 113 -5 14 7 127 102 252 212 244 214 308 258 414 277 77 14 171 -6 251 -55 30 -17 144 -118 253 -224 220 -212 243 -227 318 -204 45 13 54 22 475 500 314 356 296 324 255 471 -56 204 -180 333 -384 402 l-70 23 -1035 2 c-958 2 -1039 1 -1095 -16z"/>
</g>
<g id="layer102" fill="#ffffff" stroke="none">
<path d="M445 5326 c-76 -24 -163 -75 -223 -131 -61 -56 -122 -140 -122 -166 0 -12 162 -138 188 -147 5 -1 13 8 19 21 17 37 112 136 157 162 84 49 192 41 241 -17 52 -62 21 -145 -93 -246 -355 -314 -387 -356 -387 -502 0 -74 4 -92 30 -144 58 -115 161 -176 311 -184 75 -4 105 -1 162 17 81 24 157 72 189 119 45 68 39 159 -14 222 -32 39 -45 38 -74 -7 -57 -87 -170 -137 -258 -113 -54 14 -101 59 -101 95 0 31 76 116 159 178 103 76 287 264 315 321 43 87 51 151 32 238 -32 145 -104 227 -238 272 -87 29 -221 35 -293 12z"/>
<path d="M2445 5311 c-106 -38 -172 -91 -237 -191 -65 -102 -95 -293 -64 -423 34 -143 130 -274 248 -338 59 -31 70 -34 174 -37 99 -4 115 -2 155 18 56 28 86 56 109 100 46 90 30 216 -20 156 -6 -8 -41 -25 -77 -37 -73 -24 -159 -22 -211 5 -39 20 -108 98 -127 142 -20 49 -20 177 2 239 24 71 84 127 159 148 33 9 71 17 85 17 96 0 183 -73 219 -185 21 -63 24 -97 29 -330 l6 -260 111 -3 c85 -2 114 1 123 11 8 11 11 140 9 488 l-3 474 -120 0 -120 0 -3 -46 -3 -47 -65 44 c-36 24 -88 50 -116 59 -71 21 -200 19 -263 -4z"/>
<path d="M1142 4716 l3 -594 31 -38 c40 -50 105 -84 161 -84 l43 0 0 226 0 226 31 -27 c18 -14 55 -38 83 -53 46 -24 61 -27 156 -27 97 0 110 2 164 30 70 35 119 90 146 162 19 50 20 78 20 413 l0 360 -119 0 -119 0 -4 -317 c-3 -299 -4 -320 -24 -353 -29 -49 -78 -80 -129 -80 -54 0 -106 34 -119 78 -11 40 -37 42 -65 6 l-21 -26 -2 343 -3 344 -118 3 -117 3 2 -595z"/>
<path d="M3322 4828 l3 -483 120 0 120 0 3 43 3 43 37 -32 c65 -58 136 -83 232 -83 77 -1 92 2 152 32 45 22 82 50 112 84 l44 51 15 -29 c21 -39 63 -77 117 -105 37 -19 65 -24 156 -27 96 -4 118 -1 157 16 65 29 140 103 168 165 24 52 24 54 24 427 l0 375 -120 0 -120 0 -6 -320 c-5 -295 -7 -324 -26 -367 -27 -60 -62 -83 -129 -83 -73 0 -117 36 -148 120 -2 6 -15 -1 -29 -14 l-27 -24 -2 344 -3 344 -115 0 -115 0 -5 -300 c-7 -367 -13 -397 -90 -444 -54 -33 -120 -29 -164 9 -19 17 -38 44 -41 60 -8 37 -15 37 -46 4 l-24 -26 -5 349 -5 348 -123 3 -122 3 2 -483z"/>
<path d="M6004 5000 c0 -69 1 -97 3 -62 2 34 2 90 0 125 -2 34 -3 6 -3 -63z"/>
<path d="M5094 4931 c-58 -26 -86 -75 -82 -143 l3 -53 191 -3 c184 -2 192 -2 225 20 47 32 70 81 67 143 l-3 50 -180 2 c-158 3 -185 0 -221 -16z"/>
<path d="M1644 3758 l-29 -33 33 29 c17 17 32 31 32 33 0 8 -8 1 -36 -29z"/>
<path d="M4295 2695 c-132 -152 -257 -293 -278 -312 -96 -87 -244 -123 -363 -88 -94 27 -147 67 -352 268 -200 195 -240 223 -297 213 -40 -8 -63 -25 -241 -182 -281 -247 -327 -280 -423 -308 -170 -50 -315 16 -477 216 -32 40 -124 151 -204 247 l-145 175 -3 -605 c-2 -443 1 -616 9 -649 33 -123 108 -198 254 -254 98 -37 133 -40 121 -9 -17 44 -37 201 -34 275 3 82 3 83 28 82 57 -3 149 -27 154 -40 3 -7 19 -89 35 -181 74 -409 247 -791 458 -1014 80 -83 153 -129 248 -154 100 -26 234 -16 328 24 l41 18 -64 6 c-91 9 -174 32 -249 70 -76 38 -195 146 -256 231 -76 108 -243 481 -223 501 3 4 39 2 80 -5 274 -43 648 -61 828 -41 239 27 469 70 493 91 5 4 17 92 28 196 26 260 20 241 87 260 31 8 70 20 86 25 16 5 31 9 32 9 10 0 2 -234 -12 -373 -21 -216 -69 -404 -152 -602 -23 -55 -120 -199 -173 -259 -24 -28 -89 -83 -143 -124 -155 -115 -271 -167 -441 -197 -55 -10 -113 -21 -130 -25 l-30 -7 40 -12 c22 -7 94 -15 160 -18 98 -4 137 -1 214 16 225 50 411 186 576 421 123 176 249 466 310 715 10 39 22 78 27 88 5 10 44 34 86 53 108 49 139 76 176 153 l31 66 3 530 c1 292 1 588 0 658 l-3 128 -240 -276z"/>
<path d="M3480 2757 c0 -1 35 -36 78 -77 l77 -75 -75 78 c-69 71 -80 82 -80 74z"/>
<path d="M3733 2553 c9 -2 25 -2 35 0 9 3 1 5 -18 5 -19 0 -27 -2 -17 -5z"/>
</g>
</svg>