<!DOCTYPE svg PUBLIC "-//W3C//DTD SVG 20010904//EN" "http://www.w3.org/TR/2001/REC-SVG-20010904/DTD/svg10.dtd">
<svg version="1.0" xmlns="http://www.w3.org/2000/svg" width="100px" height="124px" viewBox="0 0 100 124" preserveAspectRatio="xMidYMid meet">
 <g id="layer101" fill="#3a62a8" stroke="none">
  <path d="M90.3499 83.0321 c-3.7318 -4.2274 -7.3761 -8.309 -8.0758 -9.1254 -3.6735 -4.1399 -8.484 -5.7434 -13.207 -4.344 -2.6531 0.7872 -3.9067 1.7493 -10.2915 7.9009 -3.6443 3.4985 -6.6764 6.1808 -7.4052 6.5306 -2.1866 1.0787 -3.1195 0.6122 -8.688 -4.2274 -1.2828 -1.137 -3.7026 -3.2653 -5.3936 -4.723 -4.1691 -3.6443 -6.1808 -4.9854 -8.5131 -5.7143 -4.1108 -1.2245 -8.1341 -0.2915 -11.6618 2.7114 -0.758 0.6706 -4.344 4.723 -7.93 9.0671 l-6.5598 7.8717 0 -19.0962 c0 -21.2828 -0.0583 -20.6997 2.0117 -23.4111 0.5831 -0.758 1.6618 -1.8367 2.449 -2.3907 1.4869 -1.0787 5.4227 -2.7405 6.6181 -2.7988 0.8163 -0.0292 0.8163 -0.2332 0.1458 3.7609 -0.2332 1.4577 -0.4665 3.7901 -0.4956 5.1895 -0.0875 2.7405 0.1749 3.3236 1.3703 2.9446 0.3207 -0.0875 1.3703 -0.3499 2.3324 -0.5831 0.9621 -0.2041 1.8659 -0.5831 2.0408 -0.8163 0.1749 -0.2332 0.4956 -1.516 0.6997 -2.8571 0.8746 -5.8601 3.4402 -14.8688 5.7726 -20.2624 2.8863 -6.6181 7.4636 -13.3236 10.9329 -15.9475 3.8484 -2.9446 8.7172 -4.0233 13.3819 -2.9738 1.1953 0.2624 2.4781 0.6706 2.8863 0.9038 0.7289 0.4082 0.7289 0.4082 -0.379 0.4373 -2.0991 0 -5.5977 0.9038 -7.93 2.0408 -4.9271 2.3615 -8.4257 6.2974 -11.8076 13.2653 -2.4198 4.9854 -4.2857 10.0583 -3.6443 10.0583 0.2332 0 1.691 -0.1749 3.2653 -0.4082 9.3586 -1.3703 16.9096 -1.8367 22.4781 -1.3994 6.2099 0.4956 15.3644 1.9534 17.2886 2.7697 l1.0204 0.4082 0.379 3.9067 c0.5248 5.5685 0.9038 8.6297 1.0787 9.1545 0.1458 0.379 4.3732 1.895 5.3061 1.895 0.2624 0 0.3499 -1.1079 0.3499 -4.1691 0 -11.8367 -2.8863 -23.1195 -7.9009 -30.8163 -1.7201 -2.6531 -6.3557 -7.172 -9.0671 -8.863 -4.0233 -2.4781 -9.7376 -4.4898 -14.1983 -5.0146 -0.9913 -0.0875 -1.8659 -0.2915 -1.9242 -0.4082 -0.2915 -0.4956 3.0612 -1.0204 6.414 -1.0204 7.0845 0 12.6822 2.2741 18.3673 7.4636 5.7726 5.3061 11.2536 15.5102 14.4606 26.9679 0.6706 2.3907 1.3411 4.4898 1.4577 4.6647 0.1458 0.1749 1.0204 0.6122 1.9534 0.9329 2.5073 0.9329 4.344 2.2157 5.3061 3.7609 1.8076 2.828 1.7784 2.449 2.0408 24.2857 0.1166 10.9913 0.2041 20 0.1458 20.0583 -0.0292 0.0583 -3.1487 -3.3528 -6.8805 -7.5802z"/>
</g>
 <g id="layer102" fill="#e8bc29" stroke="none">
  <path d="M18.105 121.2536 c-5.7726 -0.9913 -10.758 -4.4606 -13.2653 -9.3003 -1.2828 -2.4781 -1.8076 -4.2566 -2.2157 -7.3761 -0.2624 -2.1866 -0.2624 -2.7114 0.1166 -3.2653 1.1953 -1.8076 19.621 -22.5656 20.6706 -23.2362 2.2449 -1.516 3.6152 -1.0496 7.4927 2.5073 5.0437 4.6356 11.9534 10.379 13.3528 11.0787 3.3528 1.691 7.0554 1.691 10.4665 0.0292 2.1866 -1.0787 3.4985 -2.2157 11.0496 -9.5044 4.344 -4.1983 5.4227 -4.8688 7.2303 -4.519 0.5539 0.1166 1.4577 0.5539 2.0117 0.9913 0.8163 0.6122 13.4402 14.6647 20.9621 23.3236 1.3411 1.516 1.3703 2.1283 0.379 5.7434 -1.0204 3.7609 -2.3032 6.0933 -4.519 8.309 -2.3032 2.3032 -4.6064 3.5569 -8.3673 4.6064 l-2.8571 0.7872 -30.4665 0.0292 c-17.3469 0.0292 -31.137 -0.0583 -32.0408 -0.2041z"/>
</g>

</svg>