<?xml version="1.0" encoding="utf-8"?>
<!-- Generator: Adobe Illustrator 16.0.3, SVG Export Plug-In . SVG Version: 6.00 Build 0)  -->
<!DOCTYPE svg PUBLIC "-//W3C//DTD SVG 1.1//EN" "http://www.w3.org/Graphics/SVG/1.1/DTD/svg11.dtd">
<svg version="1.1" xmlns="http://www.w3.org/2000/svg" xmlns:xlink="http://www.w3.org/1999/xlink" x="0px" y="0px" width="360px"
	 height="640px" viewBox="0 0 360 640" enable-background="new 0 0 360 640" xml:space="preserve">
<g id="Capa_1">
	<g>
		<defs>
			<rect id="SVGID_1_" y="378.587" width="360" height="261.413"/>
		</defs>
		<clipPath id="SVGID_2_">
			<use xlink:href="#SVGID_1_"  overflow="visible"/>
		</clipPath>
		<g clip-path="url(#SVGID_2_)">
			<path fill="#043EBF" d="M360,804.121H0V570.576l67.488-59.785c0,0,13.204-13.688,29.893,0l47.133,31.567
				c0,0,33.193,22.21,66.755-0.977l44.932-31.986c0,0,11.736-9.08,24.573,0.697L360,577.42"/>
			<path opacity="0.4" fill="#1225B5" d="M399.577,804.121H-38.898V580.682l82.201-57.197c0,0,16.08-13.097,36.408,0l57.407,30.201
				c0,0,40.429,21.248,81.305-0.935l54.726-30.603c0,0,14.296-8.687,29.932,0.668l96.497,64.414"/>
		</g>
	</g>
</g>
<g id="Capa_2">
</g>
</svg>
