<svg class="img-fluid" id="outputsvg" xmlns="http://www.w3.org/2000/svg" viewBox="0 0 9020 3280"><g id="l3RUG5gLr5Jg09GTulRZiaw" fill="rgb(255,255,255)" style="transform: none;"><g><path id="pt7w7P4kj" d="M3325 3135 c-55 -8 -125 -23 -155 -32 l-55 -18 0 -150 0 -150 70 1 c39 0 140 6 225 12 214 17 260 1 260 -89 0 -50 -24 -69 -249 -204 -194 -116 -273 -180 -310 -253 -62 -122 -67 -285 -11 -399 48 -97 125 -153 263 -191 125 -34 552 -14 662 32 l35 15 0 138 c0 76 -4 144 -9 152 -8 12 -33 12 -168 3 -87 -7 -206 -12 -264 -12 -93 0 -108 2 -124 20 -24 26 -22 66 4 93 11 13 104 68 206 122 102 55 209 118 238 141 133 104 187 275 141 449 -39 151 -157 263 -329 310 -84 23 -304 28 -430 10z"></path><path id="pKCwMJ3vd" d="M5742 3136 c-106 -26 -194 -108 -224 -209 -7 -23 -13 -89 -13 -147 1 -95 3 -110 28 -157 61 -117 204 -173 447 -173 l120 0 0 -59 c0 -48 -5 -65 -23 -86 -29 -34 -91 -40 -307 -27 -92 5 -162 5 -173 0 -16 -8 -17 -22 -15 -131 3 -143 -3 -136 143 -162 296 -51 532 -16 645 97 101 101 110 153 110 638 0 287 -3 389 -12 398 -13 13 -291 18 -322 6 -10 -4 -16 -18 -16 -39 l0 -33 -77 39 c-114 58 -204 70 -311 45z m336 -277 l32 -11 0 -100 0 -100 -90 4 c-81 3 -92 5 -116 30 -53 52 -42 162 19 188 25 11 109 5 155 -11z"></path><path id="pv3D1BeBA" d="M4306 3114 c-14 -14 -16 -96 -16 -753 0 -560 3 -740 12 -749 17 -17 339 -17 356 0 9 9 12 70 12 215 0 112 1 203 3 203 1 0 23 -11 49 -24 64 -32 174 -50 271 -43 154 10 250 83 299 227 21 62 22 83 26 488 2 317 0 427 -9 438 -16 20 -341 21 -357 1 -8 -9 -12 -140 -14 -400 -3 -377 -3 -387 -24 -407 -33 -33 -92 -42 -160 -24 -32 8 -64 20 -71 26 -10 8 -13 92 -13 402 0 292 -3 395 -12 404 -8 8 -61 12 -174 12 -134 0 -165 -3 -178 -16z"></path><path id="pCsz9uzXX" d="M6696 3114 c-14 -14 -16 -79 -16 -563 0 -412 3 -550 12 -559 17 -17 309 -17 326 0 7 7 12 24 12 40 l0 27 73 -39 c154 -83 341 -78 434 12 l31 30 35 -26 c64 -49 140 -69 262 -70 222 -2 320 77 360 288 20 102 22 845 3 864 -15 15 -325 17 -348 2 -13 -8 -16 -67 -20 -401 l-5 -391 -24 -19 c-26 -21 -93 -25 -151 -9 l-35 10 3 394 c2 351 1 396 -13 410 -14 13 -43 16 -173 16 -86 0 -164 -5 -172 -10 -13 -8 -16 -67 -20 -399 -5 -364 -6 -390 -24 -410 -23 -26 -98 -29 -151 -7 l-35 15 0 386 c0 247 -4 393 -10 406 -10 18 -23 19 -175 19 -135 0 -166 -3 -179 -16z"></path><path id="prDglKDla" d="M2355 2178 c-232 -266 -281 -315 -341 -344 -49 -24 -63 -26 -142 -22 -118 5 -148 24 -341 211 -161 156 -201 184 -245 173 -26 -6 -108 -72 -306 -245 -140 -122 -189 -146 -300 -146 -141 0 -173 24 -412 312 l-163 195 -3 -113 c-1 -63 -1 -285 0 -494 3 -363 4 -382 24 -426 24 -52 72 -101 125 -129 60 -31 143 -60 150 -52 4 4 1 36 -6 72 -22 111 -26 208 -9 224 13 13 20 13 55 0 23 -7 50 -14 61 -14 22 0 33 -25 42 -100 10 -80 71 -308 113 -419 85 -230 216 -428 337 -510 88 -60 232 -82 339 -52 52 15 62 31 19 31 -42 0 -139 28 -194 55 -112 56 -207 163 -284 320 -46 94 -106 254 -99 266 3 3 26 2 52 -2 232 -41 577 -51 764 -24 173 26 278 47 294 59 12 8 19 50 30 166 8 85 17 162 20 170 3 8 32 23 64 33 99 29 94 35 87 -105 -21 -380 -95 -625 -249 -827 -113 -148 -341 -269 -556 -296 -47 -6 -52 -9 -35 -19 12 -7 71 -11 154 -11 117 0 145 3 205 24 292 101 504 390 641 874 18 65 33 100 43 103 9 3 45 19 80 36 74 37 114 89 130 172 10 53 21 1026 12 1025 -3 0 -73 -77 -156 -171z"></path></g></g><g id="l2PIkkFjmA9HiKMAKiXVZ40" fill="rgb(242,203,26)" style="transform: none;"><g><path id="pkiG37l9x" d="M459 3131 c-119 -24 -274 -154 -317 -266 -22 -59 -42 -155 -42 -207 0 -21 49 -83 216 -275 327 -375 342 -388 406 -364 14 5 68 48 120 94 189 172 308 266 360 283 91 30 190 18 266 -34 23 -15 113 -95 201 -178 167 -159 191 -173 250 -153 21 7 117 107 303 316 150 168 278 313 285 322 17 23 -8 137 -47 217 -57 115 -141 188 -270 230 -51 17 -111 19 -875 20 -451 1 -836 -1 -856 -5z"></path></g></g><g id="lANWp3biVrcGv1atO47KB5" fill="rgb(255,228,3)" style="transform: none;"><g><path id="p1GaqkQ5Pw" d="M2120 3120 c0 -5 7 -10 15 -10 8 0 15 5 15 10 0 6 -7 10 -15 10 -8 0 -15 -4 -15 -10z"></path><path id="pyPW0BhTh" d="M8502 3118 c-17 -17 -18 -1428 0 -1446 14 -14 354 -17 376 -4 10 7 12 160 10 733 l-3 724 -185 3 c-136 2 -189 -1 -198 -10z"></path></g></g></svg>